<?xml version="1.0" standalone="no"?>
<!DOCTYPE svg PUBLIC "-//W3C//DTD SVG 20010904//EN"
 "http://www.w3.org/TR/2001/REC-SVG-20010904/DTD/svg10.dtd">
<svg version="1.0" xmlns="http://www.w3.org/2000/svg"
 width="400.000000pt" height="400.000000pt" viewBox="0 0 400.000000 400.000000"
 preserveAspectRatio="xMidYMid meet">
<metadata>
Created by potrace 1.11, written by Peter Selinger 2001-2013
</metadata>
<g transform="translate(0.000000,400.000000) scale(0.100000,-0.100000)"
fill="#000000" stroke="none">
<path d="M1937 3785 c-51 -27 -91 -85 -102 -150 -14 -86 -20 -92 -87 -94 -34
-1 -65 -4 -69 -7 -4 -2 -16 4 -26 14 -16 16 -35 18 -155 17 -86 0 -138 4 -139
10 0 5 -2 33 -3 62 -2 59 -12 74 -53 79 -46 5 -57 -9 -58 -73 0 -32 -3 -63 -7
-68 -4 -6 -49 -11 -110 -10 l-103 0 -5 63 c-6 74 -26 97 -74 88 -16 -4 -32 -9
-35 -12 -3 -3 -6 -35 -6 -71 l0 -67 -80 1 c-151 3 -135 -4 -135 56 0 63 -15
88 -58 93 -46 5 -59 -14 -57 -85 1 -60 1 -61 -27 -62 -15 0 -76 -1 -134 -1
-126 -1 -144 -11 -145 -80 0 -24 0 -556 1 -1183 1 -627 1 -1340 1 -1585 0
-287 4 -455 11 -472 5 -15 19 -30 30 -34 11 -3 766 -6 1678 -6 1220 0 1663 3
1679 11 11 7 29 28 40 49 18 36 19 87 19 1649 0 1242 -3 1616 -12 1629 -10 13
-35 16 -157 18 l-144 2 -5 60 c-6 72 -21 95 -62 92 -41 -3 -51 -20 -50 -88 0
-68 13 -61 -118 -61 -122 0 -110 -7 -110 60 0 51 -3 62 -22 75 -28 20 -48 20
-73 2 -14 -10 -19 -27 -19 -72 l-1 -59 -105 0 -105 0 -3 55 c-4 62 -17 81 -60
86 -42 5 -54 -15 -53 -85 l1 -59 -138 1 c-108 2 -139 -1 -148 -12 -11 -14 -98
-22 -135 -13 -20 4 -39 43 -39 78 0 39 -40 112 -79 144 -41 34 -105 41 -154
15z m130 -85 c29 -30 45 -68 58 -142 10 -53 36 -72 101 -73 74 0 72 -10 -15
-73 -89 -65 -226 -81 -343 -41 -56 19 -147 75 -148 92 0 4 15 7 33 7 90 0 117
23 132 115 21 126 114 184 182 115z"/>
</g>
</svg>
